<svg xmlns="http://www.w3.org/2000/svg" viewBox="0 0 345 69.01"><defs><style>.cls-1{fill:#324d5c;}.cls-2{fill:#44647d;}.cls-3{fill:#46b29d;}.cls-4{fill:#517193;}.cls-5{fill:#feb74e;}.cls-6{fill:#ffad6f;}.cls-7{fill:#fff;}</style></defs><title>expLogo_1</title><g id="Layer_2" data-name="Layer 2"><g id="Layer_1-2" data-name="Layer 1"><g id="logo1"><path class="cls-1" d="M115.08,12.19a7.26,7.26,0,0,1,2.36.4,7.07,7.07,0,0,1,2,1.09,5.25,5.25,0,0,1,1.37,1.64,4.34,4.34,0,0,1,.5,2,7.47,7.47,0,0,1-.06,1,7.36,7.36,0,0,1-.15.83l-.21.77q-2.85,10.77-6,22t-6,21.94a8.34,8.34,0,0,1-1.68,2.42,8.92,8.92,0,0,1-2.3,1.67,7.34,7.34,0,0,1-3.5.75h-1.35a7.53,7.53,0,0,1-3.53-.75,8.82,8.82,0,0,1-2.31-1.67,7.68,7.68,0,0,1-1.64-2.42L80.7,19.94a5.25,5.25,0,0,1-.21-.77,7.2,7.2,0,0,1-.21-1.81,4.33,4.33,0,0,1,.49-2,5.09,5.09,0,0,1,1.32-1.64,6.74,6.74,0,0,1,2-1.09,7.37,7.37,0,0,1,2.43-.4,5.64,5.64,0,0,1,3.26.85,7.39,7.39,0,0,1,2,1.89,8.82,8.82,0,0,1,1.17,2.75c.34,1.29.7,2.75,1.09,4.38s.79,3.31,1.18,5.06.79,3.53,1.2,5.35.79,3.57,1.15,5.27q1.3,6,2.61,12.22h1.35q1.43-6.26,2.77-12.22c.36-1.7.75-3.45,1.15-5.27s.81-3.6,1.2-5.35.77-3.43,1.14-5.06.68-3.09,1-4.38a9.67,9.67,0,0,1,1.22-2.75A7.45,7.45,0,0,1,111.85,13,5.51,5.51,0,0,1,115.08,12.19Z"/><path class="cls-1" d="M150.3,12.19c1.12,0,2.26,0,3.41.12a10.05,10.05,0,0,1,3.11.69,5.28,5.28,0,0,1,2.26,1.71,5.17,5.17,0,0,1,.89,3.21,5.17,5.17,0,0,1-.89,3.21,5.21,5.21,0,0,1-2.26,1.71,10.05,10.05,0,0,1-3.11.69c-1.15.08-2.29.12-3.41.12h-10v11h5.29c1.12,0,2.25,0,3.39.1a9.24,9.24,0,0,1,3,.65,4.61,4.61,0,0,1,3,4.74,5,5,0,0,1-.84,3.1A5.16,5.16,0,0,1,152,44.86a9.25,9.25,0,0,1-3,.64c-1.14.07-2.27.1-3.39.1H140.3V57.23h10c1.12,0,2.26,0,3.41.12a10.66,10.66,0,0,1,3.11.66,5.19,5.19,0,0,1,2.26,1.7,5.08,5.08,0,0,1,.89,3.17,5.19,5.19,0,0,1-.91,3.27,5.4,5.4,0,0,1-2.29,1.73,9.92,9.92,0,0,1-3.11.69q-1.72.12-3.36.12H133.83a6.84,6.84,0,0,1-3.64-.81,4.78,4.78,0,0,1-1.87-2.12,8.52,8.52,0,0,1-.69-3c-.07-1.11-.11-2.24-.11-3.39V21.47c0-1.15,0-2.28.11-3.39a8.52,8.52,0,0,1,.69-3A4.78,4.78,0,0,1,130.19,13a6.84,6.84,0,0,1,3.64-.81Z"/><path class="cls-1" d="M198.87,52h1V18.49a17.35,17.35,0,0,1,.17-2.45,4.71,4.71,0,0,1,.74-2,3.71,3.71,0,0,1,1.68-1.35,7.41,7.41,0,0,1,3-.51,9.16,9.16,0,0,1,3.39.51,4.2,4.2,0,0,1,1.87,1.35,4.41,4.41,0,0,1,.8,2,17.39,17.39,0,0,1,.16,2.45V59.41c0,1.18,0,2.32-.1,3.43a9,9,0,0,1-.67,3,4.53,4.53,0,0,1-1.85,2.1,6.87,6.87,0,0,1-3.6.79H200a6.6,6.6,0,0,1-3.3-.75,7.78,7.78,0,0,1-2.21-1.81,10,10,0,0,1-1.41-2.24c-.35-.78-.62-1.44-.82-2l-12.69-33h-1V62.39a15.76,15.76,0,0,1-.17,2.44,4.69,4.69,0,0,1-.73,2A3.82,3.82,0,0,1,176,68.18a7.49,7.49,0,0,1-3,.51,9.44,9.44,0,0,1-3.45-.51,4.16,4.16,0,0,1-1.89-1.35,4.4,4.4,0,0,1-.8-2,17.14,17.14,0,0,1-.16-2.44V21.47c0-1.15,0-2.29.1-3.41a8.58,8.58,0,0,1,.69-3,4.65,4.65,0,0,1,1.88-2.1,6.89,6.89,0,0,1,3.63-.79h5.55a6.56,6.56,0,0,1,3.42.79A9,9,0,0,1,184,14.69a9,9,0,0,1,1.47,2.5Z"/><path class="cls-1" d="M248,12.19c1.12,0,2.24,0,3.38.12a10,10,0,0,1,3.09.69,5.25,5.25,0,0,1,2.25,1.71,5.3,5.3,0,0,1,.86,3.21,5.21,5.21,0,0,1-.86,3.17,5.18,5.18,0,0,1-2.25,1.71,10.29,10.29,0,0,1-3.09.71c-1.14.09-2.26.14-3.38.14H243.7V59.49c0,1.15,0,2.28-.11,3.39a8.35,8.35,0,0,1-.69,2.94A4.62,4.62,0,0,1,241,67.9a9.06,9.06,0,0,1-7.4,0,4.62,4.62,0,0,1-1.89-2.08,8.35,8.35,0,0,1-.69-2.94c-.07-1.11-.11-2.24-.11-3.39V23.65h-4.28c-1.12,0-2.25,0-3.39-.14a10.29,10.29,0,0,1-3.09-.71,5.09,5.09,0,0,1-2.24-1.71,5.15,5.15,0,0,1-.87-3.17,5.23,5.23,0,0,1,.87-3.21A5.17,5.17,0,0,1,220.16,13a10,10,0,0,1,3.09-.69q1.71-.12,3.39-.12Z"/><path class="cls-2" d="M263,21.39a29,29,0,0,1,.19-3.39,8.22,8.22,0,0,1,.88-2.94A5.2,5.2,0,0,1,266.12,13a7.75,7.75,0,0,1,3.83-.79,7.84,7.84,0,0,1,3.84.79,5.07,5.07,0,0,1,2.1,2.08,7.83,7.83,0,0,1,.87,2.94c.11,1.1.16,2.24.16,3.39v31.8a5.06,5.06,0,0,0,5.34,5.41,5.94,5.94,0,0,0,4.26-1.44,5.77,5.77,0,0,0,1.5-4c.13-17.4.16-29.41,0-31.8a29.41,29.41,0,0,1,.17-3.39,7.82,7.82,0,0,1,.86-2.94A5.14,5.14,0,0,1,291.13,13a7.81,7.81,0,0,1,3.87-.79,7.71,7.71,0,0,1,3.82.79,5.08,5.08,0,0,1,2.08,2.08,8,8,0,0,1,.88,2.94,29,29,0,0,1,.19,3.39V52.14a18,18,0,0,1-1.4,7.35,14.1,14.1,0,0,1-4,5.26,17.26,17.26,0,0,1-6.18,3.19A27.39,27.39,0,0,1,282.47,69a26.68,26.68,0,0,1-7.94-1.11,17.86,17.86,0,0,1-6.16-3.25,14.34,14.34,0,0,1-4-5.28A17.53,17.53,0,0,1,263,52.14Z"/><path class="cls-2" d="M321.8,26.4a5.25,5.25,0,0,0,1,3,12.44,12.44,0,0,0,2.6,2.57,35,35,0,0,0,3.68,2.36q2.06,1.14,4.22,2.42a50.25,50.25,0,0,1,4.23,2.76,22.51,22.51,0,0,1,3.7,3.39,16.14,16.14,0,0,1,2.64,4.28,14.76,14.76,0,0,1,1.1,5.41V53a17.86,17.86,0,0,1-.84,5.77A14.57,14.57,0,0,1,341.93,63a12.15,12.15,0,0,1-3.24,2.92,18.6,18.6,0,0,1-3.88,1.84,22.38,22.38,0,0,1-4.12,1,35.37,35.37,0,0,1-3.93.32h-.42a25.85,25.85,0,0,1-6.26-.68,17.41,17.41,0,0,1-4.63-1.84,12.88,12.88,0,0,1-3.21-2.64,14.39,14.39,0,0,1-3.47-9.21,5.71,5.71,0,0,1,.5-2.46,4.87,4.87,0,0,1,1.33-1.71,5.18,5.18,0,0,1,1.89-1,7.56,7.56,0,0,1,2.25-.32,8.2,8.2,0,0,1,2.25.32,6.54,6.54,0,0,1,2.1,1,5.35,5.35,0,0,1,1.55,1.69,4.83,4.83,0,0,1,.65,2.4c.06,2,.54,3.4,1.43,4.14a6,6,0,0,0,3.87,1.11,11.85,11.85,0,0,0,2.33-.3,4.3,4.3,0,0,0,1.83-.93A4.66,4.66,0,0,0,332,56.8a7.72,7.72,0,0,0,.44-2.8,7.37,7.37,0,0,0-1-3.79,13.52,13.52,0,0,0-2.58-3.15,27.8,27.8,0,0,0-3.66-2.77q-2.06-1.3-4.2-2.62c-1.43-.87-2.83-1.79-4.18-2.74a25.61,25.61,0,0,1-3.68-3.13,14.37,14.37,0,0,1-2.63-3.75,11.18,11.18,0,0,1-1-4.69v-.64a19.87,19.87,0,0,1,1.2-7.18A10.56,10.56,0,0,1,314,15a14,14,0,0,1,5.53-2.4,36,36,0,0,1,7.52-.7h1.1a23.35,23.35,0,0,1,6.55.8,15.67,15.67,0,0,1,4.48,2.06A10.48,10.48,0,0,1,342,17.56a13.21,13.21,0,0,1,1.54,3.11,13.86,13.86,0,0,1,.63,2.86c.08.89.12,1.6.12,2.14a4.93,4.93,0,0,1-1.78,3.87,5.93,5.93,0,0,1-1.93,1.07,7.31,7.31,0,0,1-2.42.39,5.57,5.57,0,0,1-2-.39,7,7,0,0,1-1.81-1,5.35,5.35,0,0,1-1.3-1.39,2.94,2.94,0,0,1-.5-1.59c0-2.21-.42-3.74-1.24-4.6a4.82,4.82,0,0,0-3.64-1.29,19.73,19.73,0,0,0-2.2.12,4.27,4.27,0,0,0-1.9.66,3.71,3.71,0,0,0-1.3,1.68A8.39,8.39,0,0,0,321.8,26.4Z"/><path class="cls-3" d="M57.49,13.45c0,2.52,0,5,0,7.56-.08,3.62-2.18,5.66-5.85,5.75a15.86,15.86,0,0,1-2.67,0c-3.19-.51-5.1,1-6.67,3.64-2.11,3.57-3,3.53-5.27-.09-1.6-2.63-3.57-3.9-6.77-3.62A9.17,9.17,0,0,1,24.77,26a4.82,4.82,0,0,1-2.84-4.24c-.24-5.62-.17-11.27-.06-16.9A5.43,5.43,0,0,1,26.81.05c1.33-.1,2.67,0,4,0,7,0,13.94,0,20.9,0,3.63,0,5.69,2.17,5.76,5.84C57.52,8.4,57.49,10.92,57.49,13.45Z"/><path class="cls-4" d="M60.91,68.66q-8.25,0-16.42,0a1.67,1.67,0,0,1-1.06-.26c-1-.77-.56-3-.41-3.73a11.46,11.46,0,0,1,2-4.37A18.2,18.2,0,0,1,49.46,56a19.81,19.81,0,0,1,6.87-3,20.41,20.41,0,0,1,7.79-.26,19.77,19.77,0,0,1,9.63,4.41A16,16,0,0,1,77.69,62c1.5,2.91,1.54,5.31,1,5.94a2.41,2.41,0,0,1-.63.5,2.33,2.33,0,0,1-1.16.24Q68.93,68.68,60.91,68.66Z"/><path class="cls-5" d="M27,40.12a8.88,8.88,0,0,1-9,8.93A8.74,8.74,0,0,1,9.22,40c.23-5.15,3.64-8.51,8.74-8.68A8.78,8.78,0,0,1,27,40.12Z"/><path class="cls-6" d="M69.79,40.26A8.81,8.81,0,0,1,60.65,49C55.51,48.83,51.7,45,52,39.81s3.75-8.4,8.86-8.55A8.8,8.8,0,0,1,69.79,40.26Z"/><path class="cls-1" d="M18.13,68.64c-5.5,0-11,0-16.43,0A1.64,1.64,0,0,1,.64,68.4c-1-.76-.56-3-.4-3.72a11.46,11.46,0,0,1,2-4.37A18.2,18.2,0,0,1,6.68,56a19.76,19.76,0,0,1,8-3.3A20.46,20.46,0,0,1,31,57.12,16.2,16.2,0,0,1,34.91,62c1.5,2.9,1.54,5.3,1,5.94a2.69,2.69,0,0,1-.63.5,2.19,2.19,0,0,1-1.16.23Q26.15,68.65,18.13,68.64Z"/><path class="cls-7" d="M46.22,11.34a1.76,1.76,0,0,0,.45-.67c.52-1.5,1-3,1.52-4.52A.73.73,0,0,0,48,5.36a.73.73,0,0,0-.8-.23l-.21,0c-1.16.38-2.32.79-3.48,1.14a4.61,4.61,0,0,0-2.09,1.29c-.76.83-1.59,1.6-2.4,2.39l-.2.18c-.61-.44-.77-.69-.82-1.16a8.52,8.52,0,0,0-.12-1,2.51,2.51,0,0,0-2.5-2.13c-.45,0-.89,0-1.33,0a2.48,2.48,0,0,1-1.76-.59.72.72,0,0,0-.83-.12.69.69,0,0,0-.44.67,24.59,24.59,0,0,0,.14,4.2A3.19,3.19,0,0,0,34,12.82c.63.07.94.48,1.4.95l-.44.41c-1,.91-1.9,1.87-2.88,2.76-.72.66-1.09,1-1.07,1.42a1,1,0,0,0,.38.77c.94.92,1.88,1.85,2.79,2.8a.9.9,0,0,0,1.45,0c1.21-1.24,2.45-2.46,3.68-3.69l.29-.26.29.27q1.84,1.83,3.67,3.67c.53.52.92.52,1.43,0l2.06-2.07a.83.83,0,0,0,0-1.38l-2.91-2.91-1.1-1c.08-.1.1-.15.14-.19C44.22,13.34,45.23,12.35,46.22,11.34Zm.74-5-1.1,3.2L43.7,7.47Zm-11.9,4.74c-.43.34-.65.51-.86.54A1.64,1.64,0,0,1,33,11.08a3.61,3.61,0,0,1-.82-2.43,8.33,8.33,0,0,1,.06-2.13,2.62,2.62,0,0,0,1.57.59c.55,0,.75-.2,1.41-.12a1.89,1.89,0,0,1,1.15.46,1.8,1.8,0,0,1,.48.86,1.37,1.37,0,0,1,0,.84,1.16,1.16,0,0,1-.28.45A12.83,12.83,0,0,1,35.06,11.08Zm-.17,10-1.4-1.42-1.38-1.39,1.17-1.1L36,20Zm1.85-1.83-2.69-2.76,2.09-2,2.67,2.69Zm9.56-.23-1,1.07-1,1-8.88-8.9a8,8,0,0,0,1.13-.91,7.93,7.93,0,0,0,1-1.14l4.38,4.36Zm-3.91-5.45L39.72,11l3-2.93c.38.4.78.82,1.22,1.25s1,.91,1.46,1.31Z"/></g></g></g></svg>